{
  "asset": {
    "generator": "Khronos glTF Blender I/O v3.2.43",
    "version": "2.0"
  },
  "scene": 0,
  "scenes": [
    {
      "name": "Scene",
      "nodes": [0, 1, 2, 3, 4, 5]
    }
  ],
  "nodes": [
    {
      "mesh": 0,
      "name": "platform circle",
      "translation": [
        -0.000612549192737788, 0.5347853899002075, 0.49924737215042114
      ]
    },
    {
      "mesh": 1,
      "name": "platform bottom",
      "translation": [
        -0.000612549192737788, 0.04138168692588806, 0.49924737215042114
      ]
    },
    {
      "mesh": 2,
      "name": "heaven light",
      "translation": [
        -0.0006125119398348033, 11.610219955444336, 0.49924740195274353
      ]
    },
    {
      "mesh": 3,
      "name": "platform lights",
      "translation": [
        -0.000612549192737788, 0.08406151831150055, 0.49924755096435547
      ]
    },
    {
      "mesh": 4,
      "name": "heaven",
      "translation": [
        -0.0006125119398348033, 11.610219955444336, 0.49924740195274353
      ]
    },
    {
      "mesh": 5,
      "name": "angels",
      "translation": [
        -0.0006125119398348033, 11.610219955444336, 0.49924740195274353
      ]
    }
  ],
  "materials": [
    {
      "doubleSided": true,
      "extensions": {
        "KHR_materials_specular": {
          "specularColorFactor": [1, 1, 1]
        },
        "KHR_materials_ior": {
          "ior": 1.45
        }
      },
      "name": "platform_metal",
      "pbrMetallicRoughness": {
        "baseColorFactor": [0.837, 0.837, 0.837, 1],
        "metallicFactor": 0.9,
        "roughnessFactor": 0.0
      }
    },
    {
      "doubleSided": true,
      "extensions": {
        "KHR_materials_specular": {
          "specularColorFactor": [1, 1, 1]
        },
        "KHR_materials_ior": {
          "ior": 1.52
        }
      },
      "name": "black",
      "pbrMetallicRoughness": {
        "baseColorFactor": [0, 0, 0, 0],
        "metallicFactor": 1,
        "roughnessFactor": 0.9
      }
    },
    {
      "doubleSided": true,
      "extensions": {
        "KHR_materials_emissive_strength": {
          "emissiveStrength": 1.7
        }
      },
      "emissiveFactor": [1, 1, 1],
      "name": "skylight",
      "pbrMetallicRoughness": {
        "baseColorFactor": [0, 0, 0, 1]
      }
    },
    {
      "doubleSided": true,
      "name": "colored_lights",
      "pbrMetallicRoughness": {
        "baseColorFactor": [1, 1, 1, 1],
        "metallicFactor": 0
      }
    }
  ],
  "meshes": [
    {
      "name": "platform_circle",
      "primitives": [
        {
          "attributes": {
            "POSITION": 0,
            "NORMAL": 1,
            "TEXCOORD_0": 2
          },
          "indices": 3,
          "material": 0
        }
      ]
    },
    {
      "name": "platform_bottom",
      "primitives": [
        {
          "attributes": {
            "POSITION": 4,
            "NORMAL": 5,
            "TEXCOORD_0": 6
          },
          "indices": 7,
          "material": 3
        }
      ]
    },
    {
      "name": "heaven_light",
      "primitives": [
        {
          "attributes": {
            "POSITION": 8,
            "NORMAL": 9,
            "TEXCOORD_0": 10
          },
          "indices": 11,
          "material": 2
        }
      ]
    },
    {
      "name": "platform_lights",
      "primitives": [
        {
          "attributes": {
            "POSITION": 12,
            "NORMAL": 13,
            "TEXCOORD_0": 14
          },
          "indices": 15,
          "material": 2
        }
      ]
    },
    {
      "name": "heaven",
      "primitives": [
        {
          "attributes": {
            "POSITION": 16,
            "NORMAL": 17,
            "TEXCOORD_0": 18
          },
          "indices": 19,
          "material": 0
        }
      ]
    },
    {
      "name": "angels",
      "primitives": [
        {
          "attributes": {
            "POSITION": 20,
            "NORMAL": 21,
            "TEXCOORD_0": 22
          },
          "indices": 23,
          "material": 0
        }
      ]
    }
  ],
  "accessors": [
    {
      "bufferView": 0,
      "componentType": 5126,
      "count": 5184,
      "max": [5.605189323425293, 0.06882405281066895, 5.605190277099609],
      "min": [-5.605190277099609, -0.43145477771759033, -5.605189323425293],
      "type": "VEC3"
    },
    {
      "bufferView": 1,
      "componentType": 5126,
      "count": 5184,
      "type": "VEC3"
    },
    {
      "bufferView": 2,
      "componentType": 5126,
      "count": 5184,
      "type": "VEC2"
    },
    {
      "bufferView": 3,
      "componentType": 5123,
      "count": 15432,
      "type": "SCALAR"
    },
    {
      "bufferView": 4,
      "componentType": 5126,
      "count": 968,
      "max": [5.61085319519043, 0.040318116545677185, 5.610854148864746],
      "min": [-5.610854148864746, -0.040318116545677185, -5.61085319519043],
      "type": "VEC3"
    },
    {
      "bufferView": 5,
      "componentType": 5126,
      "count": 968,
      "type": "VEC3"
    },
    {
      "bufferView": 6,
      "componentType": 5126,
      "count": 968,
      "type": "VEC2"
    },
    {
      "bufferView": 7,
      "componentType": 5123,
      "count": 2868,
      "type": "SCALAR"
    },
    {
      "bufferView": 8,
      "componentType": 5126,
      "count": 240,
      "max": [3.452497959136963, 0.4828796684741974, 3.4524974822998047],
      "min": [-3.4524974822998047, 0.48287853598594666, -3.4524974822998047],
      "type": "VEC3"
    },
    {
      "bufferView": 9,
      "componentType": 5126,
      "count": 240,
      "type": "VEC3"
    },
    {
      "bufferView": 10,
      "componentType": 5126,
      "count": 240,
      "type": "VEC2"
    },
    {
      "bufferView": 11,
      "componentType": 5123,
      "count": 720,
      "type": "SCALAR"
    },
    {
      "bufferView": 12,
      "componentType": 5126,
      "count": 2096,
      "max": [5.612058162689209, 0.20051757991313934, 5.612057685852051],
      "min": [-5.612058162689209, 0.10244249552488327, -5.612057685852051],
      "type": "VEC3"
    },
    {
      "bufferView": 13,
      "componentType": 5126,
      "count": 2096,
      "type": "VEC3"
    },
    {
      "bufferView": 14,
      "componentType": 5126,
      "count": 2096,
      "type": "VEC2"
    },
    {
      "bufferView": 15,
      "componentType": 5123,
      "count": 5472,
      "type": "SCALAR"
    },
    {
      "bufferView": 16,
      "componentType": 5126,
      "count": 9722,
      "max": [4.389732837677002, 0.5189984440803528, 4.389732837677002],
      "min": [-4.389732837677002, -0.05270495265722275, -4.389732837677002],
      "type": "VEC3"
    },
    {
      "bufferView": 17,
      "componentType": 5126,
      "count": 9722,
      "type": "VEC3"
    },
    {
      "bufferView": 18,
      "componentType": 5126,
      "count": 9722,
      "type": "VEC2"
    },
    {
      "bufferView": 19,
      "componentType": 5123,
      "count": 29388,
      "type": "SCALAR"
    },
    {
      "bufferView": 20,
      "componentType": 5126,
      "count": 706,
      "max": [4.426136016845703, 0.36903125047683716, 4.4261369705200195],
      "min": [-4.426136016845703, 0.0065908730030059814, -4.426136016845703],
      "type": "VEC3"
    },
    {
      "bufferView": 21,
      "componentType": 5126,
      "count": 706,
      "type": "VEC3"
    },
    {
      "bufferView": 22,
      "componentType": 5126,
      "count": 706,
      "type": "VEC2"
    },
    {
      "bufferView": 23,
      "componentType": 5123,
      "count": 1872,
      "type": "SCALAR"
    }
  ],
  "bufferViews": [
    {
      "buffer": 0,
      "byteLength": 62208,
      "byteOffset": 0
    },
    {
      "buffer": 0,
      "byteLength": 62208,
      "byteOffset": 62208
    },
    {
      "buffer": 0,
      "byteLength": 41472,
      "byteOffset": 124416
    },
    {
      "buffer": 0,
      "byteLength": 30864,
      "byteOffset": 165888
    },
    {
      "buffer": 0,
      "byteLength": 11616,
      "byteOffset": 196752
    },
    {
      "buffer": 0,
      "byteLength": 11616,
      "byteOffset": 208368
    },
    {
      "buffer": 0,
      "byteLength": 7744,
      "byteOffset": 219984
    },
    {
      "buffer": 0,
      "byteLength": 5736,
      "byteOffset": 227728
    },
    {
      "buffer": 0,
      "byteLength": 2880,
      "byteOffset": 233464
    },
    {
      "buffer": 0,
      "byteLength": 2880,
      "byteOffset": 236344
    },
    {
      "buffer": 0,
      "byteLength": 1920,
      "byteOffset": 239224
    },
    {
      "buffer": 0,
      "byteLength": 1440,
      "byteOffset": 241144
    },
    {
      "buffer": 0,
      "byteLength": 25152,
      "byteOffset": 242584
    },
    {
      "buffer": 0,
      "byteLength": 25152,
      "byteOffset": 267736
    },
    {
      "buffer": 0,
      "byteLength": 16768,
      "byteOffset": 292888
    },
    {
      "buffer": 0,
      "byteLength": 10944,
      "byteOffset": 309656
    },
    {
      "buffer": 0,
      "byteLength": 116664,
      "byteOffset": 320600
    },
    {
      "buffer": 0,
      "byteLength": 116664,
      "byteOffset": 437264
    },
    {
      "buffer": 0,
      "byteLength": 77776,
      "byteOffset": 553928
    },
    {
      "buffer": 0,
      "byteLength": 58776,
      "byteOffset": 631704
    },
    {
      "buffer": 0,
      "byteLength": 8472,
      "byteOffset": 690480
    },
    {
      "buffer": 0,
      "byteLength": 8472,
      "byteOffset": 698952
    },
    {
      "buffer": 0,
      "byteLength": 5648,
      "byteOffset": 707424
    },
    {
      "buffer": 0,
      "byteLength": 3744,
      "byteOffset": 713072
    }
  ],
  "buffers": [
    {
      "byteLength": 716816,
      "uri": "data:application/octet-stream;base64,"
    }
  ]
}
